HIERARCHY
ROOT Hips
{
  OFFSET 5.84602e-005 68.8428 3.50346
  CHANNELS 6 Xposition Yposition Zposition Zrotation Xrotation Yrotation
  JOINT Spine
  {
    OFFSET 0 8.597 -4.6522
    CHANNELS 3 Zrotation Xrotation Yrotation
    JOINT Spine1
    {
      OFFSET 0 7.8454 0.4098
      CHANNELS 3 Zrotation Xrotation Yrotation
      JOINT Spine2
      {
        OFFSET 0 9.7078 -2.1609
        CHANNELS 3 Zrotation Xrotation Yrotation
        JOINT Neck
        {
          OFFSET 0 21.8761 -0.4549
          CHANNELS 3 Zrotation Xrotation Yrotation
          JOINT Head
          {
            OFFSET 0 12.3537 3.3602
            CHANNELS 3 Zrotation Xrotation Yrotation
            End Site
            {
              OFFSET 0.0001 18.9506 0.5657
            }
          }
        }
        JOINT LeftShoulder
        {
          OFFSET 2.2086 21.1115 7.2329
          CHANNELS 3 Zrotation Xrotation Yrotation
          JOINT LeftArm
          {
            OFFSET 13.1193 3.0282 -4.8998
            CHANNELS 3 Zrotation Xrotation Yrotation
            JOINT LeftForeArm
            {
              OFFSET 27.4081 -0.0973053 -0.2375
              CHANNELS 3 Zrotation Xrotation Yrotation
              JOINT LeftHand
              {
                OFFSET 22.8641 0.0662994 -0.1369
                CHANNELS 3 Zrotation Xrotation Yrotation
                JOINT LeftHandIndex1
                {
                  OFFSET 8.8614 0.775009 2.4612
                  CHANNELS 3 Zrotation Xrotation Yrotation
                  JOINT LeftHandIndex2
                  {
                    OFFSET 3.3146 -0.808304 0.5841
                    CHANNELS 3 Zrotation Xrotation Yrotation
                    JOINT LeftHandIndex3
                    {
                      OFFSET 2.2628 -0.552002 0.3989
                      CHANNELS 3 Zrotation Xrotation Yrotation
                      End Site
                      {
                        OFFSET 1.6102 -0.4807 0.2612
                      }
                    }
                  }
                }
                JOINT LeftHandMiddle1
                {
                  OFFSET 8.9937 0.895004 0.2143
                  CHANNELS 3 Zrotation Xrotation Yrotation
                  JOINT LeftHandMiddle2
                  {
                    OFFSET 4.0984 0.0113983 -0.0242
                    CHANNELS 3 Zrotation Xrotation Yrotation
                    JOINT LeftHandMiddle3
                    {
                      OFFSET 2.2716 0.00689697 -0.0138001
                      CHANNELS 3 Zrotation Xrotation Yrotation
                      End Site
                      {
                        OFFSET 2.0404 -0.1441 0.0027
                      }
                    }
                  }
                }
                JOINT LeftHandRing1
                {
                  OFFSET 8.5234 0.597198 -2.0164
                  CHANNELS 3 Zrotation Xrotation Yrotation
                  JOINT LeftHandRing2
                  {
                    OFFSET 3.7188 -0.188293 -0.2328
                    CHANNELS 3 Zrotation Xrotation Yrotation
                    JOINT LeftHandRing3
                    {
                      OFFSET 2.1191 -0.106598 -0.1332
                      CHANNELS 3 Zrotation Xrotation Yrotation
                      End Site
                      {
                        OFFSET 1.8737 -0.2304 -0.0886
                      }
                    }
                  }
                }
                JOINT LeftHandPinky1
                {
                  OFFSET 7.9094 -0.601089 -3.4825
                  CHANNELS 3 Zrotation Xrotation Yrotation
                  JOINT LeftHandPinky2
                  {
                    OFFSET 2.2874 -0.477005 -0.6314
                    CHANNELS 3 Zrotation Xrotation Yrotation
                    JOINT LeftHandPinky3
                    {
                      OFFSET 1.6774 -0.349396 -0.4633
                      CHANNELS 3 Zrotation Xrotation Yrotation
                      End Site
                      {
                        OFFSET 1.4888 -0.4091 -0.3416
                      }
                    }
                  }
                }
                JOINT LeftHandThumb1
                {
                  OFFSET 1.833 -1.3875 1.3896
                  CHANNELS 3 Zrotation Xrotation Yrotation
                  JOINT LeftHandThumb2
                  {
                    OFFSET 3.4129 -1.121 2.5732
                    CHANNELS 3 Zrotation Xrotation Yrotation
                    JOINT LeftHandThumb3
                    {
                      OFFSET 2.2474 -0.804199 1.6192
                      CHANNELS 3 Zrotation Xrotation Yrotation
                      End Site
                      {
                        OFFSET 1.6527 -0.5689 1.1317
                      }
                    }
                  }
                }
              }
            }
          }
        }
        JOINT RightShoulder
        {
          OFFSET -2.2086 21.1115 7.2329
          CHANNELS 3 Zrotation Xrotation Yrotation
          JOINT RightArm
          {
            OFFSET -13.1216 3.0287 -4.9007
            CHANNELS 3 Zrotation Xrotation Yrotation
            JOINT RightForeArm
            {
              OFFSET -27.4081 -0.0973053 -0.2375
              CHANNELS 3 Zrotation Xrotation Yrotation
              JOINT RightHand
              {
                OFFSET -22.8641 0.0664063 -0.1369
                CHANNELS 3 Zrotation Xrotation Yrotation
                JOINT RightHandIndex1
                {
                  OFFSET -8.8614 0.774994 2.4612
                  CHANNELS 3 Zrotation Xrotation Yrotation
                  JOINT RightHandIndex2
                  {
                    OFFSET -3.3146 -0.808304 0.5841
                    CHANNELS 3 Zrotation Xrotation Yrotation
                    JOINT RightHandIndex3
                    {
                      OFFSET -2.2628 -0.552002 0.3989
                      CHANNELS 3 Zrotation Xrotation Yrotation
                      End Site
                      {
                        OFFSET -1.6102 -0.4807 0.2612
                      }
                    }
                  }
                }
                JOINT RightHandMiddle1
                {
                  OFFSET -8.9937 0.894989 0.2143
                  CHANNELS 3 Zrotation Xrotation Yrotation
                  JOINT RightHandMiddle2
                  {
                    OFFSET -4.0984 0.0113983 -0.0242
                    CHANNELS 3 Zrotation Xrotation Yrotation
                    JOINT RightHandMiddle3
                    {
                      OFFSET -2.2716 0.00691223 -0.0138001
                      CHANNELS 3 Zrotation Xrotation Yrotation
                      End Site
                      {
                        OFFSET -2.0404 -0.1441 0.0027
                      }
                    }
                  }
                }
                JOINT RightHandRing1
                {
                  OFFSET -8.5234 0.597198 -2.0164
                  CHANNELS 3 Zrotation Xrotation Yrotation
                  JOINT RightHandRing2
                  {
                    OFFSET -3.7188 -0.188309 -0.2328
                    CHANNELS 3 Zrotation Xrotation Yrotation
                    JOINT RightHandRing3
                    {
                      OFFSET -2.1191 -0.106598 -0.1332
                      CHANNELS 3 Zrotation Xrotation Yrotation
                      End Site
                      {
                        OFFSET -1.8737 -0.2304 -0.0886
                      }
                    }
                  }
                }
                JOINT RightHandPinky1
                {
                  OFFSET -7.9094 -0.601105 -3.4825
                  CHANNELS 3 Zrotation Xrotation Yrotation
                  JOINT RightHandPinky2
                  {
                    OFFSET -2.2874 -0.477005 -0.6314
                    CHANNELS 3 Zrotation Xrotation Yrotation
                    JOINT RightHandPinky3
                    {
                      OFFSET -1.6774 -0.349396 -0.4633
                      CHANNELS 3 Zrotation Xrotation Yrotation
                      End Site
                      {
                        OFFSET -1.4888 -0.4091 -0.3416
                      }
                    }
                  }
                }
                JOINT RightHandThumb1
                {
                  OFFSET -1.833 -1.38751 1.3896
                  CHANNELS 3 Zrotation Xrotation Yrotation
                  JOINT RightHandThumb2
                  {
                    OFFSET -3.41299 -1.12099 2.5732
                    CHANNELS 3 Zrotation Xrotation Yrotation
                    JOINT RightHandThumb3
                    {
                      OFFSET -2.24741 -0.804108 1.6192
                      CHANNELS 3 Zrotation Xrotation Yrotation
                      End Site
                      {
                        OFFSET -1.6527 -0.5689 1.1317
                      }
                    }
                  }
                }
              }
            }
          }
        }
      }
    }
  }
  JOINT RightUpLeg
  {
    OFFSET -9.1966 3.8861 -0.7581
    CHANNELS 3 Zrotation Xrotation Yrotation
    JOINT RightLeg
    {
      OFFSET -0.7359 -41.0265 0
      CHANNELS 3 Zrotation Xrotation Yrotation
      JOINT RightFoot
      {
        OFFSET 0 -40.2855 0
        CHANNELS 3 Zrotation Xrotation Yrotation
        JOINT RightToeBase
        {
          OFFSET 0 -5.6122 11.7359
          CHANNELS 3 Zrotation Xrotation Yrotation
          End Site
          {
            OFFSET 0 0 7.8731
          }
        }
      }
    }
  }
  JOINT LeftUpLeg
  {
    OFFSET 9.1965 3.8864 -0.7581
    CHANNELS 3 Zrotation Xrotation Yrotation
    JOINT LeftLeg
    {
      OFFSET 0.7359 -41.0268 0
      CHANNELS 3 Zrotation Xrotation Yrotation
      JOINT LeftFoot
      {
        OFFSET 0 -40.2855 0
        CHANNELS 3 Zrotation Xrotation Yrotation
        JOINT LeftToeBase
        {
          OFFSET 0 -5.6122 11.7359
          CHANNELS 3 Zrotation Xrotation Yrotation
          End Site
          {
            OFFSET 0 0 7.8731
          }
        }
      }
    }
  }
}
MOTION
Frames:	6
Frame Time:	0.0333333
1.6426 32.0878 0.382858 0 28.9934 -0 -0.293485 2.7441 -0.587319 -0.559722 5.49104 -1.16254 -0.559722 5.49103 -1.16254 2.74473e-006 -19.005 -2.17276e-006 2.36872e-007 15.0059 7.01071e-008 -13.4097 -6.38124 -16.7875 -49.9991 0.00383658 -26.0006 -30.0558 37.4715 -64.4334 54.158 -0.726755 -13.5834 -3.18055e-015 -7.55382e-015 -3.18055e-015 -3.18055e-015 -7.55382e-015 -1.59028e-015 -0 -7.95139e-015 -0 -3.18055e-015 -7.55382e-015 -3.18055e-015 -0.0146133 -8.54176e-005 -5.145e-007 2.14532e-007 -1.189e-006 -6.97361e-007 -3.18055e-015 -7.55382e-015 -3.18055e-015 -0.0187631 -0.00117727 5.56861e-005 2.14081e-007 -1.18909e-006 -6.974e-007 -3.18055e-015 -7.55382e-015 -3.18055e-015 -0.0122474 -0.00324677 0.00067348 2.14758e-007 -1.18935e-006 -6.97271e-007 -3.18055e-015 -7.55382e-015 -3.18055e-015 -3.18055e-015 -7.55382e-015 -1.59028e-015 -0 -7.95139e-015 -0 10.6306 -7.47029 15.5845 50.4676 0.00282385 24.755 30.0537 37.4681 64.4292 -46.4165 -1.79831 13.6176 -6.36111e-015 -1.19271e-015 -4.77083e-015 -9.54166e-015 -2.78299e-015 1.59028e-015 -6.36111e-015 -7.95139e-016 1.59028e-015 -6.36111e-015 -1.19271e-015 -4.77083e-015 0.0150122 -8.96269e-005 4.36849e-006 -3.18055e-015 2.98177e-014 -4.77083e-015 -6.36111e-015 -1.19271e-015 -4.77083e-015 0.01897 -0.00118233 -6.35159e-005 1.95071e-006 1.11826e-006 -1.59636e-006 -6.36111e-015 -1.19271e-015 -4.77083e-015 0.0122579 -0.00324374 -0.000672603 8.82781e-032 -7.95139e-016 6.36111e-015 -6.36111e-015 -1.19271e-015 -4.77083e-015 -9.54166e-015 -2.78299e-015 1.59028e-015 -6.36111e-015 -7.95139e-016 1.59028e-015 -9.69227 -30.9857 -19.2921 -167.709 82.8762 165.376 21.5707 49.648 -29.5977 3.18055e-015 6.36111e-015 -0 9.51618 -30.9075 19.0921 168.634 83.0182 -166.206 -20.78 48.5575 28.8954 5.61944e-008 -5.51352e-008 1.9838e-007 
1.6426 32.0896 0.15705 0 28.9934 -0 -0.292829 2.65621 -0.5891 -0.559172 5.31529 -1.16647 -0.559172 5.3153 -1.16647 8.83084e-006 -19.005 -9.6054e-006 2.32086e-007 15.1155 -2.64007e-007 -13.4097 -6.38122 -16.7875 -49.9991 0.0038609 -26.0006 -30.0558 37.4714 -64.4334 54.5031 -1.01261 -13.1287 4.77083e-015 -1.19271e-015 -3.18055e-015 1.78272e-006 -1.72346e-006 -1.97348e-006 3.18055e-015 3.18055e-015 -0 4.77083e-015 -1.19271e-015 -3.18055e-015 -0.0146162 -7.94258e-005 -1.77406e-006 -2.61154e-007 1.20346e-006 6.90666e-007 4.77083e-015 -1.19271e-015 -3.18055e-015 -0.0187509 -0.0011791 6.04769e-005 7.95139e-015 1.78906e-014 6.36111e-015 4.77083e-015 -1.19271e-015 -3.18055e-015 -0.012294 -0.00325371 0.000672914 1.59028e-015 3.97569e-016 -4.77083e-015 4.77083e-015 -1.19271e-015 -3.18055e-015 1.78272e-006 -1.72346e-006 -1.97348e-006 3.18055e-015 3.18055e-015 -0 10.3995 -7.51756 15.7058 50.4308 0.00282085 25.0111 30.0537 37.4681 64.4292 -46.569 -1.97653 13.1781 9.08356e-008 -6.30895e-007 4.09316e-007 -1.9545e-006 -1.13439e-006 1.561e-006 9.08354e-008 -6.30895e-007 4.09316e-007 9.08356e-008 -6.30895e-007 4.09316e-007 0.0150115 -9.35011e-005 4.77259e-007 3.18055e-015 1.11319e-014 -4.77083e-015 9.08356e-008 -6.30895e-007 4.09316e-007 0.0190106 -0.00119541 -5.96286e-005 -9.28791e-008 6.30955e-007 -4.09413e-007 9.08356e-008 -6.30895e-007 4.09316e-007 0.0122509 -0.00324673 -0.000672854 -9.21648e-008 6.31199e-007 -4.09309e-007 9.08356e-008 -6.30895e-007 4.09316e-007 -1.9545e-006 -1.13439e-006 1.561e-006 9.08354e-008 -6.30895e-007 4.09316e-007 -9.73382 -31.2917 -19.3603 -167.96 82.5993 165.609 21.5833 49.6483 -29.6134 1.3528e-007 1.37466e-007 4.97487e-007 9.55772 -31.2132 19.1614 168.848 82.7387 -166.405 -20.7921 48.5579 28.9108 -2.77143e-007 -4.96631e-007 2.23448e-007 
1.6426 32.0914 -0.0687643 0 28.9934 -0 -0.292174 2.56835 -0.590873 -0.558633 5.13959 -1.17038 -0.558633 5.13958 -1.17038 -2.21475e-006 -19.0046 -6.4873e-006 -9.64544e-008 15.225 2.00629e-007 -13.4097 -6.38122 -16.7875 -49.9991 0.00384984 -26.0006 -30.0558 37.4714 -64.4334 54.8504 -1.29568 -12.6723 -9.54166e-015 -7.95139e-016 7.95139e-015 -7.95139e-015 -1.59028e-015 7.95139e-015 -1.43125e-014 -1.59028e-015 6.36111e-015 -9.54166e-015 -7.95139e-016 7.95139e-015 -0.0146206 -8.70554e-005 -4.11619e-006 4.77083e-015 -9.14409e-015 -0 -9.54166e-015 -7.95139e-016 7.95139e-015 -0.0187498 -0.00117399 5.72947e-005 -1.46848e-006 5.11484e-007 1.28497e-006 -9.54166e-015 -7.95139e-016 7.95139e-015 -0.0122552 -0.00324318 0.000676876 3.18055e-015 3.97569e-016 -0 -9.54166e-015 -7.95139e-016 7.95139e-015 -7.95139e-015 -1.59028e-015 7.95139e-015 -1.43125e-014 -1.59028e-015 6.36111e-015 10.1685 -7.56532 15.827 50.3941 0.00281251 25.2671 30.0537 37.4681 64.4292 -46.7229 -2.15355 12.7381 1.871e-006 1.76237e-006 -1.96491e-006 8.94119e-008 -6.1214e-007 4.39033e-007 1.78159e-006 2.37451e-006 -2.40395e-006 1.871e-006 1.76237e-006 -1.96491e-006 0.0149985 -8.27501e-005 -2.0391e-006 1.87114e-006 1.76211e-006 -1.96515e-006 1.871e-006 1.76237e-006 -1.96491e-006 0.0189983 -0.00119229 -6.5758e-005 1.77971e-006 2.37423e-006 -2.40435e-006 1.871e-006 1.76237e-006 -1.96491e-006 0.0122721 -0.00324916 -0.000683685 1.87105e-006 1.76214e-006 -1.96516e-006 1.871e-006 1.76237e-006 -1.96491e-006 8.94119e-008 -6.1214e-007 4.39033e-007 1.78159e-006 2.37451e-006 -2.40395e-006 -9.77592 -31.5973 -19.4292 -168.192 82.3225 165.825 21.596 49.6486 -29.6293 5.416e-008 5.49324e-008 1.98996e-007 9.59955 -31.5195 19.231 169.048 82.4584 -166.59 -20.8042 48.5582 28.9263 2.38542e-015 -6.36111e-015 -0 
1.6426 32.0932 -0.294586 0 28.9934 -0 -0.291521 2.48053 -0.592642 -0.558103 4.96388 -1.17429 -0.558103 4.9639 -1.17428 1.86129e-005 -19.005 2.5186e-006 6.05743e-007 14.7996 1.3696e-007 -13.4097 -6.38127 -16.7875 -49.9991 0.00385276 -26.0006 -30.0558 37.4714 -64.4334 55.1999 -1.57591 -12.2141 -1.59028e-015 -1.03368e-014 -3.18055e-015 2.64834e-031 -9.54166e-015 1.59028e-015 -3.18055e-015 -9.14409e-015 3.18055e-015 -1.59028e-015 -1.03368e-014 -3.18055e-015 -0.0146296 -8.21225e-005 -6.12819e-006 -1.59028e-015 -1.98785e-015 -3.18055e-015 -1.59028e-015 -1.03368e-014 -3.18055e-015 -0.0187498 -0.00117072 6.13244e-005 -4.77083e-015 7.55382e-015 -3.18055e-015 -1.59028e-015 -1.03368e-014 -3.18055e-015 -0.0122454 -0.00324978 0.000671131 3.18055e-015 2.54444e-014 3.18055e-015 -1.59028e-015 -1.03368e-014 -3.18055e-015 2.64834e-031 -9.54166e-015 1.59028e-015 -3.18055e-015 -9.14409e-015 3.18055e-015 9.93753 -7.61363 15.948 50.3572 0.00281499 25.5232 30.0537 37.4681 64.4292 -46.8781 -2.32937 12.2976 1.87833e-006 1.75946e-006 -1.95948e-006 1.87833e-006 1.75946e-006 -1.95948e-006 1.87833e-006 1.75946e-006 -1.95948e-006 1.87833e-006 1.75946e-006 -1.95948e-006 0.0150001 -8.98067e-005 -4.89815e-007 1.87847e-006 1.7592e-006 -1.95972e-006 1.87833e-006 1.75946e-006 -1.95948e-006 0.0190014 -0.00118969 -6.62633e-005 3.84695e-006 2.92489e-006 -3.45081e-006 1.87833e-006 1.75946e-006 -1.95948e-006 0.0122941 -0.00325242 -0.000676173 1.87838e-006 1.75923e-006 -1.95973e-006 1.87833e-006 1.75946e-006 -1.95948e-006 1.87833e-006 1.75946e-006 -1.95948e-006 1.87833e-006 1.75946e-006 -1.95948e-006 -9.81832 -31.9036 -19.4986 -168.41 82.0451 166.025 21.6088 49.6489 -29.6452 1.62623e-007 1.64635e-007 5.96992e-007 9.64194 -31.8252 19.3012 169.232 82.1787 -166.76 -20.8163 48.5586 28.9419 -2.81641e-008 2.74822e-008 -9.9194e-008 
1.6426 32.0949 -0.520413 0 28.9934 -0 -0.290867 2.39266 -0.594401 -0.55758 4.78821 -1.17817 -0.55758 4.7882 -1.17817 -1.26659e-005 -19.0047 -5.44514e-007 4.6789e-007 12.9921 2.3846e-007 -13.4097 -6.38125 -16.7875 -49.9991 0.00385447 -26.0006 -30.0558 37.4714 -64.4334 55.5517 -1.85325 -11.7544 -4.41391e-032 1.59028e-015 1.59028e-015 0 1.98785e-015 -0 -3.18055e-015 2.78299e-015 -1.59028e-015 -4.41391e-032 1.59028e-015 1.59028e-015 -0.014607 -9.34844e-005 -4.30331e-007 -1.59028e-015 -3.18055e-015 1.59028e-015 -4.41391e-032 1.59028e-015 1.59028e-015 -0.0187428 -0.00118157 5.67004e-005 3.18055e-015 1.59028e-015 -0 -4.41391e-032 1.59028e-015 1.59028e-015 -0.0122685 -0.00325013 0.000684166 1.59028e-015 -3.57812e-015 -0 -4.41391e-032 1.59028e-015 1.59028e-015 0 1.98785e-015 -0 -3.18055e-015 2.78299e-015 -1.59028e-015 9.70668 -7.66235 16.0687 50.3202 0.00281097 25.7792 30.0537 37.4681 64.4292 -47.0347 -2.50396 11.8566 1.32417e-031 -2.38542e-015 3.18055e-015 4.41391e-032 -7.95139e-016 3.18055e-015 6.62086e-032 -1.19271e-015 3.18055e-015 1.32417e-031 -2.38542e-015 3.18055e-015 0.0149867 -8.76311e-005 -7.01254e-006 0 2.38542e-015 -0 1.32417e-031 -2.38542e-015 3.18055e-015 0.0190011 -0.00119231 -6.13247e-005 -1.21382e-031 -4.37326e-015 -1.59028e-015 1.32417e-031 -2.38542e-015 3.18055e-015 0.0122515 -0.00324616 -0.000680363 1.54487e-031 -2.78299e-015 3.18055e-015 1.32417e-031 -2.38542e-015 3.18055e-015 4.41391e-032 -7.95139e-016 3.18055e-015 6.62086e-032 -1.19271e-015 3.18055e-015 -9.8612 -32.2095 -19.5685 -168.613 81.7679 166.21 21.6215 49.6492 -29.6611 -5.42556e-008 -5.48241e-008 -1.98999e-007 9.68464 -32.1315 19.3719 169.406 81.8982 -166.918 -20.8285 48.5589 28.9574 -1.97305e-007 1.92174e-007 -6.94367e-007 
1.6426 32.0967 -0.746243 0 28.9934 -0 -0.290213 2.30483 -0.596153 -0.557066 4.61254 -1.18204 -0.557065 4.61254 -1.18204 1.01567e-007 -19.0046 1.66053e-007 3.2594e-007 11.2495 4.3885e-007 -13.4097 -6.38124 -16.7875 -49.9991 0.00384816 -26.0006 -30.0558 37.4714 -64.4334 55.9056 -2.12766 -11.293 1.75352e-006 -1.7497e-006 -1.9548e-006 1.75352e-006 -1.7497e-006 -1.9548e-006 1.75352e-006 -1.7497e-006 -1.9548e-006 1.75352e-006 -1.7497e-006 -1.9548e-006 -0.0146191 -8.48405e-005 -5.11385e-006 1.75369e-006 -1.74945e-006 -1.95502e-006 1.75352e-006 -1.7497e-006 -1.9548e-006 -0.0187707 -0.00118212 5.33988e-005 1.75372e-006 -1.74936e-006 -1.9551e-006 1.75352e-006 -1.7497e-006 -1.9548e-006 -0.0122781 -0.0032566 0.000677124 1.30688e-006 -4.84549e-007 -1.29032e-006 1.75352e-006 -1.7497e-006 -1.9548e-006 1.75352e-006 -1.7497e-006 -1.9548e-006 1.75352e-006 -1.7497e-006 -1.9548e-006 9.47593 -7.71155 16.1893 50.2832 0.00279808 26.0352 30.0537 37.4681 64.4292 -47.1926 -2.67732 11.4152 9.54166e-015 2.38542e-015 -4.77083e-015 6.36111e-015 1.59028e-015 -3.18055e-015 9.54166e-015 3.97569e-015 -4.77083e-015 9.54166e-015 2.38542e-015 -4.77083e-015 0.0149758 -8.71227e-005 -2.26789e-006 3.18055e-015 -1.98785e-015 -1.59028e-015 9.54166e-015 2.38542e-015 -4.77083e-015 0.018999 -0.00119087 -6.19406e-005 -6.36111e-015 -2.38542e-015 1.59028e-015 9.54166e-015 2.38542e-015 -4.77083e-015 0.0122326 -0.00324445 -0.000664656 -0 -5.1684e-015 -0 9.54166e-015 2.38542e-015 -4.77083e-015 6.36111e-015 1.59028e-015 -3.18055e-015 9.54166e-015 3.97569e-015 -4.77083e-015 -9.90464 -32.515 -19.639 -168.802 81.4908 166.382 21.6344 49.6494 -29.6771 2.9867e-007 3.01235e-007 1.0945e-006 9.72795 -32.4373 19.4431 169.567 81.6181 -167.064 -20.8407 48.5592 28.9731 2.2567e-007 -2.19398e-007 7.93572e-007 
